<svg xmlns="http://www.w3.org/2000/svg" viewBox="0 0 291.35 449.04"><title>logo_and_name_white</title><g id="bee717e0-ea8d-43fb-81aa-e2f68d8694a4" data-name="Capa 1"><path d="M1152.07,770.42a17.72,17.72,0,0,1,1.4,35.38V806h0a120.47,120.47,0,0,0-61.12,220.38l-4.18,11.37-.84,2.28a134.65,134.65,0,0,1,65.35-248.18v-.16h.09a3.54,3.54,0,1,0-.35-7.07h-.14a141.73,141.73,0,1,0,111,237.71h0a3.55,3.55,0,0,0-5-4.64l.06,0a134.69,134.69,0,0,1-165.67,25.53l1.44-1.07,11.13-8.26a120.56,120.56,0,0,0,142.69-25.81l.13.12.14-.15a17.72,17.72,0,0,1,25.41,24.67l.12-.81h0a155.9,155.9,0,1,1-122-261.48v0Z" transform="translate(-995.6 -770.41)" fill="#fff" fill-rule="evenodd"/><g id="baf40e51-d66c-48fc-8c37-7a0bf092f8ff" data-name=" 1593149787952"><polygon points="102.88 259.82 243.26 155.72 192.21 16.89 102.88 259.82" fill="#fff" fill-rule="evenodd"/><polygon points="218.23 183.27 261.38 205.01 245.78 162.58 218.23 183.27" fill="#fff" fill-rule="evenodd"/></g><path transform="translate(-995.6 -770.41)" fill="#fff"/><text transform="translate(0 422.55)" font-size="105.95" fill="#fff" font-family="MyriadPro-Regular, Myriad Pro"><tspan letter-spacing="0em">C</tspan><tspan x="61.87" y="0" letter-spacing="-0.08em">A</tspan><tspan x="118.34" y="0" letter-spacing="-0.01em">Y</tspan><tspan x="174.28" y="0">SA</tspan></text></g></svg>