<svg id="b8324a21-ace0-4d1b-b048-1ddf32396a5c" data-name="Capa 1" xmlns="http://www.w3.org/2000/svg" viewBox="0 0 325.08 486"><title>logo_and_name_white</title><path d="M702.79,347.88a17.72,17.72,0,0,1,1.4,35.38v.2h0a120.47,120.47,0,0,0-61.12,220.38l-4.18,11.37-.84,2.28A134.65,134.65,0,0,1,703.4,369.31v-.16h.09a3.54,3.54,0,0,0-.21-7.08H703A141.73,141.73,0,1,0,814,599.79h0a3.55,3.55,0,0,0-5-4.64h.06a134.69,134.69,0,0,1-165.67,25.53l1.44-1.07L656,611.35a120.56,120.56,0,0,0,142.69-25.81l.13.12.14-.15a17.72,17.72,0,0,1,25.41,24.67l.12-.81h0a155.9,155.9,0,1,1-122-261.48h.34Z" transform="translate(-525.44 -317.02)" fill="#fff" stroke="#fff" stroke-miterlimit="10" fill-rule="evenodd"/><g id="b27ac722-0dc6-4379-b639-fb0a8ac73533" data-name="a6e30178-748b-4555-a00f-df9b184e4bb9"><polygon points="123.76 290.67 264.14 186.57 213.09 47.74 123.76 290.67" fill="#fff" stroke="#fff" stroke-miterlimit="10" fill-rule="evenodd"/><polygon points="239.11 214.12 282.26 235.86 266.66 193.43 239.11 214.12" fill="#fff" stroke="#fff" stroke-miterlimit="10" fill-rule="evenodd"/></g><path d="M0,0" transform="translate(-525.44 -317.02)" fill="#211915" fill-rule="evenodd"/><text transform="translate(22.96 450.92)" font-size="102" fill="#fff" stroke="#fff" font-family="MyriadPro-Regular, Myriad Pro"><tspan letter-spacing="0em">C</tspan><tspan x="59.56" y="0" letter-spacing="-0.08em">A</tspan><tspan x="113.93" y="0" letter-spacing="-0.01em">Y</tspan><tspan x="167.78" y="0">SA</tspan></text><rect width="325.08" height="486" fill="none"/></svg>