<svg xmlns="http://www.w3.org/2000/svg" viewBox="0 0 274.91 311.63"><title>logo_black</title><g id="f9e12a7a-a779-4936-99b8-a70c7fbbf190" data-name="Capa 1"><path d="M1152.07,770.42a17.72,17.72,0,0,1,1.4,35.38V806h0a120.47,120.47,0,0,0-61.12,220.38l-4.18,11.37-.84,2.28a134.65,134.65,0,0,1,65.35-248.18v-.16h.09a3.54,3.54,0,1,0-.35-7.07h-.14a141.73,141.73,0,1,0,111,237.71h0a3.55,3.55,0,0,0-5-4.64l.06,0a134.69,134.69,0,0,1-165.67,25.53l1.44-1.07,11.13-8.26a120.56,120.56,0,0,0,142.69-25.81l.13.12.14-.15a17.72,17.72,0,0,1,25.41,24.67l.12-.81h0a155.9,155.9,0,1,1-122-261.48v0Z" transform="translate(-1003.27 -770.41)" fill="#211915" fill-rule="evenodd"/><g id="fd1e3cdc-0019-4be8-a6e8-7b2525c791ef" data-name=" 1593149787952"><polygon points="95.22 259.82 235.59 155.72 184.55 16.89 95.22 259.82" fill="#211915" fill-rule="evenodd"/><polygon points="210.56 183.27 253.72 205.01 238.12 162.58 210.56 183.27" fill="#211915" fill-rule="evenodd"/></g><path transform="translate(-1003.27 -770.41)" fill="#211915"/></g></svg>