<?xml version="1.0" encoding="utf-8"?>
<!-- Generator: Adobe Illustrator 23.0.5, SVG Export Plug-In . SVG Version: 6.00 Build 0)  -->
<svg version="1.1" id="Capa_1" xmlns="http://www.w3.org/2000/svg" xmlns:xlink="http://www.w3.org/1999/xlink" x="0px" y="0px"
	 viewBox="0 0 1311.4 1227.4" style="enable-background:new 0 0 1311.4 1227.4;" xml:space="preserve">
<style type="text/css">
	.st0{fill-rule:evenodd;clip-rule:evenodd;fill:#FFFFFF;stroke:#FFFFFF;stroke-miterlimit:10;}
	.st1{fill-rule:evenodd;clip-rule:evenodd;fill:#211915;}
	.st2{fill-rule:evenodd;clip-rule:evenodd;fill:none;}
</style>
<title>logo_and_name_black</title>
<path class="st0" d="M702.8,347.9c9.8,0,17.7,8,17.7,17.8c0,9.2-7.1,16.8-16.3,17.6v0.2l0,0c-66.5,3.3-117.6,59.8-114.3,126.3
	c1.9,38,21.6,72.9,53.2,94.1l-4.2,11.4l-0.8,2.3c-62.8-39.8-81.4-123-41.6-185.8c23.4-36.9,63.3-60.1,106.9-62.3v-0.2h0.1
	c2-0.1,3.5-1.7,3.4-3.6s-1.7-3.5-3.6-3.4c0,0-0.1,0-0.1,0H703c-78.2,3.8-138.5,70.2-134.7,148.4c3.8,78.2,70.2,138.5,148.4,134.7
	c37.1-1.8,72-18.1,97.3-45.4l0,0c0.9-1.8,0.2-3.9-1.6-4.8c-1.1-0.5-2.4-0.5-3.4,0.1h0.1c-42.6,46-111.2,56.6-165.7,25.5l1.4-1.1
	l11.1-8.3c48,24.2,106.2,13.6,142.7-25.8l0.1,0.1l0.1-0.2c7.1-6.8,18.3-6.5,25.1,0.6c6.4,6.7,6.6,17.2,0.4,24.1l0.1-0.8l0,0
	c-58.4,63.3-157,67.2-220.3,8.8s-67.2-157-8.8-220.3c27.8-30.1,66.2-48,107.1-50l0,0L702.8,347.9z"/>
<g id="a6e30178-748b-4555-a00f-df9b184e4bb9">
	<polygon class="st0" points="649.2,607.7 789.6,503.6 738.5,364.8 	"/>
	<polygon class="st0" points="764.5,531.1 807.7,552.9 792.1,510.5 	"/>
</g>
<path class="st1" d="M0,0"/>
<rect x="541.9" y="331.9" class="st2" width="298.1" height="341.3"/>
</svg>
