<svg id="f4789908-3757-4a1b-9703-31839a8a36b0" data-name="Capa 1" xmlns="http://www.w3.org/2000/svg" viewBox="0 0 298.08 341.28"><title>logo_white</title><path d="M702.79,347.88a17.72,17.72,0,0,1,1.4,35.38v.2h0a120.47,120.47,0,0,0-61.12,220.38l-4.18,11.37-.84,2.28A134.65,134.65,0,0,1,703.4,369.31v-.16h.09a3.54,3.54,0,0,0-.21-7.08H703A141.73,141.73,0,1,0,814,599.79h0a3.55,3.55,0,0,0-5-4.64h.06a134.69,134.69,0,0,1-165.67,25.53l1.44-1.07L656,611.35a120.56,120.56,0,0,0,142.69-25.81l.13.12.14-.15a17.72,17.72,0,0,1,25.41,24.67l.12-.81h0a155.9,155.9,0,1,1-122-261.48h.34Z" transform="translate(-541.92 -331.9)" fill="#fff" stroke="#fff" stroke-miterlimit="10" fill-rule="evenodd"/><g id="b1aa7455-3392-4e43-b650-f1fc5cac6933" data-name="a6e30178-748b-4555-a00f-df9b184e4bb9"><polygon points="107.28 275.79 247.66 171.69 196.61 32.86 107.28 275.79" fill="#fff" stroke="#fff" stroke-miterlimit="10" fill-rule="evenodd"/><polygon points="222.63 199.24 265.78 220.98 250.18 178.55 222.63 199.24" fill="#fff" stroke="#fff" stroke-miterlimit="10" fill-rule="evenodd"/></g><path d="M0,0" transform="translate(-541.92 -331.9)" fill="#211915" fill-rule="evenodd"/><rect width="298.08" height="341.28" fill="none"/></svg>